<svg width="141" height="167" viewBox="0 0 141 167" fill="none" xmlns="http://www.w3.org/2000/svg">
<path d="M17.3775 115.279C13.6935 110.611 10.3961 105.581 7.96814 100.141C5.09347 93.1461 3.56547 85.7061 3.1748 78.1875C3.91614 76.8835 8.46014 68.9461 11.5148 65.1728C14.8481 61.0541 19.3401 53.2048 17.7095 44.6368C16.5921 38.7661 15.3228 35.3701 14.6335 33.8128C15.4895 32.6901 16.4081 31.6101 17.3975 30.5821C19.2761 28.7621 21.3015 26.8821 23.8708 26.1381C26.1495 25.4301 28.8108 25.8781 30.5881 27.5155C33.2935 30.2235 32.3828 34.4901 31.1521 37.6981C29.2375 42.3835 26.3428 46.5795 24.0361 51.0715C18.6255 61.3408 14.1841 72.4621 13.6801 84.1835C13.5601 90.7395 13.8841 97.6781 16.6855 103.709C16.7855 103.862 16.8961 103.991 17.0121 104.102C17.0268 108.077 18.7921 111.935 20.8401 115.286C23.8068 119.987 27.5588 124.17 30.1588 129.109C30.2588 129.299 30.3548 129.491 30.4521 129.683C26.2788 124.715 21.4375 120.346 17.3775 115.279Z" fill="white"/>
<path d="M131.91 110.713C127.781 122.267 120.654 132.605 111.828 141.102C104.958 140.083 84.2383 137.518 71.8023 141.465C59.3437 145.417 46.6877 159.47 42.673 164.225C39.689 162.719 36.8063 160.963 34.3437 158.691C31.837 156.421 29.713 153.779 27.6623 151.101C24.9237 147.431 22.241 143.429 21.2197 138.909C20.4757 134.541 24.4943 134.289 26.997 136.809C29.4757 139.073 31.1863 142.298 34.3077 143.785C39.317 146.111 43.5517 141.199 47.3037 138.566C51.9557 135.079 57.0277 131.993 62.565 130.146C68.705 128.363 75.5077 129.094 81.1503 132.09C83.3983 133.33 85.661 134.687 87.3877 136.618C87.9957 137.354 88.0877 138.35 89.281 138.383C90.1823 138.433 90.965 137.611 90.8743 136.717C90.7957 135.699 89.8437 134.631 89.1117 133.894C83.1743 128.334 74.841 125.391 66.725 126.19C58.217 127.065 50.7597 132.061 44.0997 137.105C42.0263 138.598 40.065 140.539 37.5663 141.258C37.429 141.27 37.297 141.271 37.1663 141.27C36.893 138.426 36.2143 135.626 35.2637 132.935C33.109 126.721 29.0557 121.489 25.2237 116.237C23.241 113.427 21.245 110.179 20.461 106.733C19.8623 104.297 19.8183 99.4073 22.937 98.7939C26.1583 99.7659 27.233 104.466 28.285 107.293C28.9117 108.979 29.365 110.981 30.973 112.015C32.2303 112.813 33.929 112.346 34.8517 111.253C36.9237 108.499 38.9903 105.651 41.8543 103.654C46.9383 100.027 53.4597 98.5793 59.5983 99.7366C61.773 100.09 63.7863 100.957 65.5783 102.195C65.5223 102.13 65.469 102.062 65.4223 101.994C65.401 101.954 65.3797 101.914 65.3597 101.874C65.4263 101.997 65.5077 102.106 65.597 102.209C65.7943 102.346 65.9903 102.486 66.1823 102.631C66.7863 102.874 67.3637 102.709 67.7637 102.347C68.977 101.915 70.3117 100.147 71.229 99.3699C75.833 94.9073 78.881 89.0273 80.5863 82.8886C84.789 67.1326 75.7397 50.7099 65.6317 39.1179C64.965 38.3513 64.257 37.6246 63.5463 36.8993C63.1303 36.4779 62.6863 36.0833 62.289 35.646C62.029 35.3593 61.077 34.4633 61.5663 34.0966C62.6757 33.2633 64.525 33.7593 65.729 34.0646C67.993 34.638 70.1663 35.55 72.3117 36.4593C73.1837 36.83 74.053 37.2073 74.9263 37.5726C75.5437 37.83 76.1797 38.134 76.8303 38.2966C79.609 39.2993 81.901 36.7153 83.9263 35.1966C86.5463 33.042 89.1477 30.8619 91.7917 28.7353C93.113 27.6819 94.4743 26.6326 95.8903 25.5766C96.0557 25.4446 96.229 25.3153 96.4077 25.186C96.4117 25.1886 109.858 32.5193 120.169 26.014C123.982 31.4273 127.074 37.3726 129.533 43.5086C132.332 50.8993 134.744 58.478 136.13 66.2713C136.394 67.882 136.629 69.4993 136.812 71.122C136.978 71.87 136.838 72.7833 137.038 73.5419C137.04 73.6273 137.041 73.7113 137.036 73.7926C137.116 76.0486 137.144 78.306 137.165 80.5633C137.265 90.8019 135.232 101.033 131.91 110.713Z" fill="white"/>
<path d="M65.6483 98.7528C65.6416 98.7488 65.6363 98.7434 65.6296 98.7394C65.663 98.7781 65.6963 98.8181 65.735 98.8528C65.703 98.8221 65.6776 98.7861 65.6483 98.7528Z" fill="#283C51"/>
<path d="M90.838 71.8481C89.3886 71.7828 87.358 72.0321 87.7726 73.9681C88.3006 75.6841 90.1846 74.8081 91.482 74.9854C96.662 75.1481 100.945 78.7814 102.558 83.6121C103.835 87.2068 103.673 91.1054 103.545 94.8628C103.314 99.7228 102.273 104.813 99.242 108.739C98.914 109.129 98.5646 109.476 98.202 109.78C98.2246 107.507 97.7393 104.332 97.6073 103.213C97.0233 101.361 94.294 101.976 94.5646 103.899C94.8886 106.268 95.1353 108.657 95.0286 111.051C95.0246 111.14 95.03 111.225 95.042 111.309C94.1993 111.467 93.346 111.452 92.522 111.261C92.706 108.64 92.6846 106.009 92.49 103.389C92.4433 101.501 89.7086 101.315 89.3926 103.161C89.3393 104.168 89.5273 105.183 89.5113 106.196C89.5353 107.325 89.5446 108.453 89.494 109.581C88.9393 109.044 88.4433 108.393 88.0313 107.624C86.75 105.217 86.7473 102.416 86.8086 99.7548C86.95 95.9094 87.33 92.0508 86.842 88.2134C86.5033 86.1934 83.5206 86.6334 83.7553 88.6668C84.2206 92.3374 83.8126 96.0334 83.6913 99.7121C83.5113 103.695 83.93 108.051 86.7006 111.148C88.1646 112.804 90.1286 114.068 92.3313 114.424C98.6193 115.507 103.119 110.185 104.875 104.721C106.317 100.809 106.685 96.6188 106.739 92.4761C106.757 90.2761 106.729 88.0574 106.361 85.8841C105.09 78.0081 99.0646 71.8014 90.838 71.8481Z" fill="#283C51"/>
<path d="M133.48 84.0897C131.549 83.159 130.873 85.7244 130.196 87.0137C128.421 91.0124 128.113 95.4417 127.301 99.6924C126.732 102.747 125.86 105.794 124.154 108.423C124.097 108.512 124.038 108.598 123.98 108.683C123.945 107.238 123.917 105.791 123.854 104.347C123.829 103.602 123.746 102.862 123.726 102.118C123.776 101.706 123.661 101.26 123.394 100.931C122.436 99.7324 120.505 100.56 120.609 102.059C120.79 105.051 120.834 108.05 120.928 111.048C120.933 111.142 120.945 111.228 120.961 111.312C120.073 111.683 119.146 111.767 118.237 111.52C118.29 111.362 118.317 111.19 118.306 111.004C118.232 108.792 118.244 106.579 118.216 104.367C118.206 103.666 118.229 102.975 118.194 102.275C117.868 100.359 115.068 100.62 115.089 102.547C115.097 104.734 115.114 106.922 115.145 109.11C111.52 103.844 112.698 93.099 113.686 86.9844C114.569 81.711 116.429 76.3724 120.506 72.7137C122.508 70.863 124.968 69.1204 127.769 68.9577C129.52 69.191 130.366 66.5377 128.35 65.899C121.606 65.4697 114.705 73.1244 112.574 79.0577C110.322 85.2404 109.59 91.915 109.621 98.4684C109.538 104.746 111.137 113.395 118.417 114.77C121.972 115.238 125.197 112.734 126.95 109.827C129.969 105.118 130.462 99.4217 131.417 94.0444C131.8 91.947 132.306 89.859 133.209 87.919C133.769 86.6737 135.132 85.1164 133.48 84.0897Z" fill="#283C51"/>
<path d="M131.961 107.257C127.832 118.811 120.705 129.149 111.879 137.646C105.009 136.627 84.2894 134.062 71.8534 138.009C59.3948 141.962 46.7388 156.014 42.7241 160.769C39.7401 159.263 36.8574 157.507 34.3948 155.235C31.8881 152.965 29.7641 150.323 27.7135 147.646C24.9748 143.975 22.2921 139.973 21.2708 135.453C20.5268 131.085 24.5455 130.833 27.0481 133.353C29.5268 135.617 31.2374 138.842 34.3588 140.329C39.3681 142.657 43.6028 137.743 47.3548 135.11C52.0068 131.623 57.0788 128.537 62.6161 126.69C68.7561 124.907 75.5588 125.638 81.2014 128.634C83.4494 129.874 85.7121 131.231 87.4388 133.162C88.0468 133.898 88.1388 134.894 89.3321 134.927C90.2335 134.977 91.0161 134.155 90.9255 133.261C90.8468 132.243 89.8948 131.175 89.1628 130.438C83.2255 124.878 74.8921 121.935 66.7761 122.734C58.2681 123.609 50.8108 128.605 44.1508 133.649C42.0774 135.142 40.1161 137.083 37.6174 137.802C37.4801 137.814 37.3481 137.815 37.2175 137.814C36.9441 134.97 36.2654 132.17 35.3148 129.479C33.1601 123.266 29.1068 118.033 25.2748 112.781C23.2921 109.973 21.2961 106.723 20.5121 103.277C19.9148 100.841 19.8694 95.9514 22.9881 95.3381C26.2094 96.3114 27.2841 101.01 28.3361 103.837C28.9628 105.523 29.4161 107.525 31.0241 108.559C32.2814 109.357 33.9801 108.89 34.9028 107.797C36.9748 105.043 39.0414 102.195 41.9054 100.198C46.9894 96.5714 53.5108 95.1234 59.6494 96.2807C61.8241 96.6341 63.8374 97.5007 65.6294 98.7394C65.5734 98.6741 65.5201 98.6061 65.4734 98.5381C65.4521 98.4981 65.4308 98.4581 65.4108 98.4181C65.4774 98.5407 65.5588 98.6501 65.6481 98.7527C65.8454 98.8901 66.0414 99.0301 66.2334 99.1754C66.8374 99.4181 67.4148 99.2527 67.8161 98.8914C69.0281 98.4594 70.3628 96.6927 71.2801 95.9141C75.8841 91.4514 78.9321 85.5714 80.6374 79.4327C84.8401 63.6767 75.7908 47.2554 65.6828 35.6621C65.0161 34.8954 64.3081 34.1687 63.5974 33.4447C63.1828 33.0207 62.7374 32.6287 62.3401 32.1901C62.0801 31.9034 61.1281 31.0074 61.6174 30.6407C62.7268 29.8074 64.5761 30.3034 65.7801 30.6087C68.0441 31.1821 70.2174 32.0941 72.3628 33.0034C73.2348 33.3741 74.1028 33.7527 74.9774 34.1167C75.5948 34.3741 76.2308 34.6781 76.8814 34.8407C79.6601 35.8434 81.9521 33.2594 83.9774 31.7407C86.5974 29.5861 89.1988 27.4061 91.8414 25.2794C93.1641 24.2261 94.5268 23.1767 95.9415 22.1207C96.1068 21.9887 96.2801 21.8594 96.4588 21.7314C96.4628 21.7327 109.909 29.0634 120.22 22.5581C124.033 27.9714 127.125 33.9167 129.584 40.0527C132.383 47.4434 134.795 55.0221 136.181 62.8154C136.445 64.4261 136.68 66.0434 136.863 67.6661C137.029 68.4154 136.889 69.3274 137.089 70.0861C137.091 70.1701 137.092 70.2554 137.087 70.3367C137.167 72.5941 137.195 74.8501 137.216 77.1074C137.316 87.3461 135.283 97.5767 131.961 107.257ZM17.4281 111.823C13.7441 107.155 10.4468 102.125 8.01878 96.6847C5.14545 89.6901 3.61612 82.2514 3.22678 74.7314C3.96678 73.4274 8.51079 65.4914 11.5655 61.7167C14.8988 57.5981 19.3908 49.7501 17.7614 41.1807C16.6441 35.3101 15.3735 31.9141 14.6841 30.3581C15.5401 29.2341 16.4601 28.1541 17.4481 27.1261C19.3268 25.3061 21.3535 23.4261 23.9215 22.6821C26.2001 21.9741 28.8628 22.4234 30.6388 24.0594C33.3441 26.7674 32.4334 31.0341 31.2028 34.2421C29.2881 38.9274 26.3935 43.1234 24.0868 47.6154C18.6761 57.8847 14.2348 69.0061 13.7321 80.7274C13.6108 87.2834 13.9348 94.2221 16.7361 100.253C16.8375 100.406 16.9481 100.535 17.0641 100.646C17.0788 104.622 18.8428 108.479 20.8908 111.83C23.8588 116.531 27.6108 120.715 30.2094 125.653C30.3108 125.843 30.4054 126.035 30.5028 126.227C26.3294 121.261 21.4881 116.89 17.4281 111.823ZM61.0134 30.6967C61.0054 30.6901 60.9974 30.6847 60.9881 30.6781C60.9921 30.6794 60.9961 30.6807 61.0001 30.6821C61.0601 30.7141 61.1188 30.7474 61.1774 30.7794C61.1748 30.7781 61.1721 30.7767 61.1694 30.7741L61.1774 30.7794C61.1788 30.7807 61.1788 30.7807 61.1801 30.7821C61.1801 30.7807 61.1788 30.7807 61.1774 30.7794C61.2001 30.7967 61.2214 30.8141 61.2441 30.8301C61.1721 30.7794 61.0948 30.7367 61.0134 30.6967ZM140.316 75.3354C140.291 73.3421 140.255 71.3474 140.165 69.3567C140.164 69.2274 140.157 69.0954 140.148 68.9607C140.143 68.8701 140.14 68.7794 140.136 68.6887C140.143 68.5047 140.115 68.3327 140.061 68.1741C139.981 67.5914 139.883 67.0234 139.873 66.5607C139.075 59.7407 137.316 53.0767 135.204 46.5554C131.676 35.7261 126.765 25.1234 119.425 16.3301C116.501 12.8501 100.359 -4.14592 96.2334 0.94341C95.2414 2.36874 96.0374 10.6447 96.1214 13.0994C96.1428 14.7407 96.4068 16.3994 96.1974 18.0327C92.4534 20.8087 89.0214 23.4807 85.3895 26.5314C83.1055 28.3234 81.0214 30.4367 78.4868 31.8741C78.1241 32.0834 77.7588 31.8274 77.4094 31.7087C76.4308 31.3234 75.4588 30.9181 74.4881 30.5127C70.3881 29.0141 62.7588 24.8314 59.1108 28.6807C58.3188 29.5314 58.1041 30.9247 58.4961 32.0421C58.6361 33.3594 60.3961 34.4074 61.1628 35.4101C64.7068 39.0247 67.8494 43.0314 70.5681 47.3007C74.8628 54.2874 78.2188 62.1754 78.6254 70.4514C78.7881 77.1794 76.3681 83.7527 72.7721 89.3621C71.0281 91.7807 69.1268 93.7927 66.8561 95.8181C63.7868 93.5887 59.6908 92.9527 55.9708 92.7754C45.9668 92.5674 37.9828 97.6314 32.5174 105.767C30.6308 102.238 30.2548 97.8887 27.5001 94.8114C24.2948 90.7567 20.1921 91.9154 18.2508 95.3847C17.2135 91.6354 16.9388 87.6807 16.8055 83.8074C16.6121 73.4247 19.9148 63.3354 24.3495 54.0581C26.2428 50.0381 28.4001 46.1514 30.6215 42.3061C33.4241 37.3421 36.6335 31.6194 35.1228 25.7381C34.2228 22.2967 31.0908 19.7967 27.6081 19.3514C22.6788 18.5421 18.2801 21.7367 15.0521 25.1261C8.26012 32.2181 4.52546 41.6021 2.37879 51.0541C-1.58521 67.7994 -0.962547 86.3394 7.05212 101.822C10.5748 108.282 14.9815 114.261 20.0868 119.558C23.3695 122.947 26.6494 126.355 29.5974 130.046C30.6148 131.361 31.8254 133.027 32.5188 134.737C31.8468 133.929 31.2081 133.103 30.5401 132.455C29.5868 131.422 28.5721 130.442 27.3774 129.689C24.0628 127.675 19.4375 128.453 18.3281 132.558C17.6841 134.937 18.3681 137.465 19.3228 139.666C21.1668 143.911 23.7121 147.797 26.6548 151.359C30.3068 156.217 34.9414 160.251 40.3121 163.066C46.9988 165.761 51.1108 165.843 54.3841 166.053C75.7068 167.343 95.9948 156.503 111.365 142.417C124.501 130.711 134.144 115.411 137.848 98.0834C139.648 90.6381 140.516 83.0141 140.316 75.3354Z" fill="#283C51"/>
<path d="M115.057 30.0498C116.088 29.5085 117.353 29.3498 117.172 27.8432C116.579 25.5405 114.176 26.8978 112.863 27.7152C110.964 28.9018 109.26 30.3925 107.876 32.1552C106.241 34.2645 105.215 36.8218 104.835 39.4578C104.711 40.2992 105.403 41.0872 106.221 41.1738C108.157 41.3312 107.92 39.0698 108.4 37.8032C108.847 36.3952 109.549 35.0658 110.465 33.9072C111.74 32.3498 113.3 31.0338 115.057 30.0498Z" fill="#283C51"/>
<path d="M80.5344 47.8866C80.4757 47.9812 80.4197 48.0759 80.3424 48.1559C80.4704 48.0012 80.5704 47.8226 80.6344 47.6266C80.6184 47.7212 80.5704 47.8039 80.5317 47.8906L80.5344 47.8866ZM92.1144 46.8266C93.273 47.5306 94.789 46.2532 94.3464 44.9932C93.905 43.6039 89.6784 42.1266 88.2584 42.1146C85.105 41.9892 81.9717 43.1692 79.3997 44.9412C78.6397 45.5226 77.5797 46.1106 77.597 47.1972C77.5717 48.5826 79.5037 49.2466 80.333 48.1666C81.3944 47.2386 82.649 46.5492 83.953 46.0279C86.989 44.7599 89.3744 45.0279 92.1144 46.8266Z" fill="#283C51"/>
<path d="M66.0168 53.077C69.3141 55.2464 69.2448 51.585 68.3528 50.3224C61.1821 35.233 39.5181 38.7997 31.8648 51.669C23.0675 65.0584 31.1781 85.637 47.7435 86.9984C58.7515 87.9197 69.0168 82.4304 72.1141 71.421C72.6555 69.917 73.4235 67.4717 71.3275 66.8544C69.6608 66.4677 68.2115 67.729 66.8581 68.513C63.3995 70.7917 59.2861 73.405 55.0128 71.829C52.7315 70.9864 51.0621 69.089 49.7328 67.121C47.4088 63.5904 48.0648 58.801 50.9341 55.7797C54.5875 51.5704 61.0928 50.7877 66.0168 53.077Z" fill="#283C51"/>
<path d="M100.55 45.5405C98.4287 46.6085 99.27 48.6471 101.061 49.5111C101.83 49.9431 102.665 50.2205 103.477 50.5591C103.941 50.7511 104.387 51.0285 104.897 51.0685C107.785 50.9711 107.203 46.9471 106.973 44.9725C106.091 41.6405 102.315 44.6231 100.55 45.5405Z" fill="#283C51"/>
<path d="M65.6483 98.7528C65.6416 98.7488 65.6363 98.7434 65.6296 98.7394C65.663 98.7781 65.6963 98.8181 65.735 98.8528C65.703 98.8221 65.6776 98.7861 65.6483 98.7528Z" fill="#283C51"/>
<path d="M80.5344 47.8866C80.4757 47.9812 80.4197 48.0759 80.3424 48.1559C80.4704 48.0012 80.5704 47.8226 80.6344 47.6266C80.6184 47.7212 80.5704 47.8039 80.5317 47.8906L80.5344 47.8866ZM92.1144 46.8266C93.273 47.5306 94.789 46.2532 94.3464 44.9932C93.905 43.6039 89.6784 42.1266 88.2584 42.1146C85.105 41.9892 81.9717 43.1692 79.3997 44.9412C78.6397 45.5226 77.5797 46.1106 77.597 47.1972C77.5717 48.5826 79.5037 49.2466 80.333 48.1666C81.3944 47.2386 82.649 46.5492 83.953 46.0279C86.989 44.7599 89.3744 45.0279 92.1144 46.8266Z" fill="#283C51"/>
<path d="M100.55 45.5404C98.4287 46.6084 99.27 48.647 101.061 49.511C101.83 49.943 102.665 50.2204 103.477 50.559C103.941 50.751 104.387 51.0284 104.897 51.0684C107.785 50.971 107.203 46.947 106.973 44.9724C106.091 41.6404 102.315 44.623 100.55 45.5404Z" fill="#283C51"/>
<path d="M66.0168 53.077C69.3141 55.2464 69.2448 51.585 68.3528 50.3224C61.1821 35.233 39.5181 38.7997 31.8648 51.669C23.0675 65.0584 31.1781 85.637 47.7435 86.9984C58.7515 87.9197 69.0168 82.4304 72.1141 71.421C72.6555 69.917 73.4235 67.4717 71.3275 66.8544C69.6608 66.4677 68.2115 67.729 66.8581 68.513C63.3995 70.7917 59.2861 73.405 55.0128 71.829C52.7315 70.9864 51.0621 69.089 49.7328 67.121C47.4088 63.5904 48.0648 58.801 50.9341 55.7797C54.5875 51.5704 61.0928 50.7877 66.0168 53.077Z" fill="#283C51"/>
</svg>
